<svg width="85" height="23" fill="none" xmlns="http://www.w3.org/2000/svg"><path fill="#fff" d="M-38-26h293v126H-38z"/><path d="M41.979 20.75V0h3.741v20.746h-3.741v.005zM40.42 13.8c0-2.117-.632-3.81-1.895-5.081-1.264-1.271-2.964-1.906-5.1-1.905a7.067 7.067 0 00-3.646.947 6.525 6.525 0 00-2.498 2.616 7.868 7.868 0 00-.888 3.755c0 2.21.672 3.97 2.016 5.278 1.344 1.308 3.112 1.961 5.303 1.96.78.006 1.555-.1 2.303-.313a5.93 5.93 0 001.813-.865c.468-.338.892-.73 1.265-1.168.3-.356.56-.742.78-1.152l-2.661-1.574c-.891 1.288-2.059 1.931-3.502 1.93-1.016 0-1.838-.267-2.465-.8a3.195 3.195 0 01-1.085-2.196h10.19c.051-.395.07-.876.07-1.432zm-10.172-1.222c.072-.73.422-1.406.978-1.892a3.16 3.16 0 012.164-.734 3.504 3.504 0 012.31.738c.287.233.523.52.696.844.172.324.276.68.306 1.044h-6.454zM61.306 13.926c-.08-3.943-3.19-7.112-7.011-7.112-3.876 0-7.016 3.256-7.016 7.284 0 4.027 3.14 7.272 7.016 7.272a6.821 6.821 0 004.19-1.44v1.146h2.812v-6.978a.7.7 0 00.01-.172zm-7.154 4.364c-2.269 0-4.11-1.908-4.11-4.258s1.841-4.258 4.11-4.258c2.268 0 4.105 1.906 4.105 4.258 0 2.352-1.837 4.265-4.105 4.265v-.007zM84.999 13.926c-.08-3.943-3.188-7.112-7.012-7.112-3.873 0-7.016 3.256-7.016 7.284 0 4.027 3.143 7.272 7.016 7.272a6.833 6.833 0 004.192-1.44v1.146h2.812v-6.978c.01-.06.01-.11.008-.172zm-7.155 4.364c-2.268 0-4.108-1.908-4.108-4.258s1.84-4.258 4.108-4.258c2.269 0 4.108 1.906 4.108 4.258 0 2.352-1.84 4.265-4.108 4.265v-.007zM70.036 6.814v3.505h-1.491c-.475.002-.93.187-1.266.516-.336.33-.525.776-.526 1.242v8.674h-3.575v-9.86a4.05 4.05 0 011.224-2.883 4.212 4.212 0 012.943-1.194h2.691z" fill="#010118"/><g filter="url(#filter0_d)"><ellipse cx="16.472" cy="7.154" rx="3.094" ry="2.988" fill="url(#paint0_radial)"/></g><mask id="a" fill="#fff"><path d="M20.917 12.036a10.373 10.373 0 01-1.583 6.08 10.452 10.452 0 01-4.808 4.068 10.516 10.516 0 01-6.285.578 10.478 10.478 0 01-5.476-3.123A10.368 10.368 0 011.188 7.766a10.44 10.44 0 014.473-4.43 10.512 10.512 0 016.22-1.067l-.488 3.557a6.887 6.887 0 00-4.075.7 6.84 6.84 0 00-2.93 2.902 6.793 6.793 0 001.032 7.78 6.864 6.864 0 003.588 2.046 6.889 6.889 0 004.118-.379 6.848 6.848 0 003.15-2.666 6.797 6.797 0 001.037-3.983l3.604-.19z"/></mask><path d="M20.917 12.036a10.373 10.373 0 01-1.583 6.08 10.452 10.452 0 01-4.808 4.068 10.516 10.516 0 01-6.285.578 10.478 10.478 0 01-5.476-3.123A10.368 10.368 0 011.188 7.766a10.44 10.44 0 014.473-4.43 10.512 10.512 0 016.22-1.067l-.488 3.557a6.887 6.887 0 00-4.075.7 6.84 6.84 0 00-2.93 2.902 6.793 6.793 0 001.032 7.78 6.864 6.864 0 003.588 2.046 6.889 6.889 0 004.118-.379 6.848 6.848 0 003.15-2.666 6.797 6.797 0 001.037-3.983l3.604-.19z" stroke="url(#paint1_linear)" stroke-width="120" mask="url(#a)"/><defs><radialGradient id="paint0_radial" cx="0" cy="0" r="1" gradientUnits="userSpaceOnUse" gradientTransform="rotate(95.422 5.083 11.16) scale(8.25855 6.34417)"><stop stop-color="#5BFFC4"/><stop offset=".666" stop-color="#66C8FF"/></radialGradient><linearGradient id="paint1_linear" x1="23.548" y1="23" x2="-7.51" y2="3.384" gradientUnits="userSpaceOnUse"><stop stop-color="#5BFFC4"/><stop offset="1" stop-color="#66C8FF"/></linearGradient><filter id="filter0_d" x="-21.622" y="-22.835" width="68.189" height="67.976" filterUnits="userSpaceOnUse" color-interpolation-filters="sRGB"><feFlood flood-opacity="0" result="BackgroundImageFix"/><feColorMatrix in="SourceAlpha" values="0 0 0 0 0 0 0 0 0 0 0 0 0 0 0 0 0 0 127 0"/><feOffset dx="-4" dy="4"/><feGaussianBlur stdDeviation="15.5"/><feColorMatrix values="0 0 0 0 0.545625 0 0 0 0 0.675 0 0 0 0 0.659177 0 0 0 0.54 0"/><feBlend in2="BackgroundImageFix" result="effect1_dropShadow"/><feBlend in="SourceGraphic" in2="effect1_dropShadow" result="shape"/></filter></defs></svg>