<svg width="16" height="16" fill="none" xmlns="http://www.w3.org/2000/svg"><g clip-path="url(#clip0)" fill="#009099"><path d="M2.505 14a.5.5 0 01-.355-.157.55.55 0 01-.15-.372V9.235a.51.51 0 010-.176L3.01 6.15V2.529a.55.55 0 01.15-.372A.5.5 0 013.515 2H12.6a.5.5 0 01.354.157.55.55 0 01.15.372v3.629l.875 2.823a.678.678 0 010 .163v4.235c0 .14-.053.275-.148.374a.493.493 0 01-.357.155.493.493 0 01-.357-.155.543.543 0 01-.147-.374V9.207l-.875-2.795a.494.494 0 010-.177V3.06H4.019v3.176a.51.51 0 010 .177L3.01 9.327v4.144a.55.55 0 01-.149.372.5.5 0 01-.355.157z"/><path d="M11.927 12.588H2.505a.493.493 0 01-.357-.155A.543.543 0 012 12.06c0-.14.053-.275.148-.374a.493.493 0 01.357-.155h9.422c.134 0 .262.055.357.155a.543.543 0 010 .749.493.493 0 01-.357.154zM12.6 5.53H3.178v1.058H12.6V5.53zM13.273 8.706H2.505v1.059h10.768v-1.06z"/></g><defs><clipPath id="clip0"><path fill="#fff" transform="translate(2 2)" d="M0 0h12v12H0z"/></clipPath></defs></svg>