<svg width="16" height="16" fill="none" xmlns="http://www.w3.org/2000/svg" class="__web-inspector-hide-shortcut__"><g clip-path="url(#clip2)" fill="#009099"><path d="M14.512 13.858h-9.28a.479.479 0 01-.344-.148.517.517 0 01-.143-.358V3.506a.523.523 0 01.145-.356.485.485 0 01.343-.15h9.279a.485.485 0 01.343.15.523.523 0 01.144.356v9.846a.517.517 0 01-.142.358.48.48 0 01-.345.148zM5.72 12.845h8.285V4.013H5.72v8.832zM2.612 14a.479.479 0 01-.345-.148.517.517 0 01-.142-.359V3.817c0-.134.05-.263.142-.358a.479.479 0 01.69 0 .517.517 0 01.143.358v9.676a.517.517 0 01-.143.359.479.479 0 01-.345.148z"/><path d="M1.488 5.114a.469.469 0 01-.292-.095.5.5 0 01-.179-.258.518.518 0 01.008-.317.497.497 0 01.19-.249l1.124-.797a.457.457 0 01.547 0l1.125.797a.523.523 0 01.13.675.467.467 0 01-.65.128l-.878-.573-.852.6a.456.456 0 01-.273.089zM2.612 14a.444.444 0 01-.273-.088l-1.125-.783a.522.522 0 01-.108-.687.473.473 0 01.655-.15l.851.6.852-.6a.48.48 0 01.374-.097.478.478 0 01.325.216.517.517 0 01-.153.718l-1.124.784a.456.456 0 01-.274.087zM8.23 13.561a.479.479 0 01-.344-.148.516.516 0 01-.143-.358V3.506c0-.134.051-.263.143-.358a.479.479 0 01.69 0 .517.517 0 01.142.358v9.549a.516.516 0 01-.14.36.481.481 0 01-.347.146z"/><path d="M12.535 11.177H8.231a.479.479 0 01-.345-.148.517.517 0 010-.716.479.479 0 01.345-.148h4.304c.13 0 .254.053.345.148a.517.517 0 010 .716.479.479 0 01-.345.148z"/></g><defs><clipPath id="clip2"><path fill="#fff" transform="translate(1 3)" d="M0 0h14v11H0z"/></clipPath></defs></svg>