<svg width="16" height="16" fill="none" xmlns="http://www.w3.org/2000/svg"><g clip-path="url(#clip1)" fill="#009099"><path d="M11.517 12.727H4.483c-.659 0-1.29-.284-1.756-.789A2.816 2.816 0 012 10.033V7.136a.515.515 0 01.133-.342.438.438 0 01.316-.145H13.55c.12 0 .233.052.318.143a.51.51 0 01.131.344v2.89c0 .715-.261 1.401-.727 1.908a2.394 2.394 0 01-1.756.793zm-8.62-5.104v2.41c.003.454.172.888.469 1.208.297.32.698.5 1.117.5h7.034a1.53 1.53 0 001.122-.509c.297-.324.464-.762.464-1.219v-2.39H2.897z"/><path d="M10.016 14H5.984a1.614 1.614 0 01-1.201-.492 1.902 1.902 0 01-.534-1.267h.897a.899.899 0 00.27.583c.156.149.36.226.568.215h4.032a.75.75 0 00.566-.207.884.884 0 00.271-.578h.898a1.9 1.9 0 01-.538 1.259 1.613 1.613 0 01-1.197.488zM3.932 7.623a.431.431 0 01-.317-.142.509.509 0 01-.132-.345V2.487c0-.13.048-.253.132-.344A.431.431 0 013.932 2h3.093a.438.438 0 01.315.144.515.515 0 01.133.343v1.065c0 .13-.047.253-.131.344a.432.432 0 01-.317.143.431.431 0 01-.317-.143.509.509 0 01-.132-.344v-.578H4.393v4.162a.53.53 0 01-.138.347.453.453 0 01-.149.105.423.423 0 01-.174.035z"/></g><defs><clipPath id="clip1"><path fill="#fff" d="M0 0h16v16H0z"/></clipPath></defs></svg>