<svg width="20" height="20" fill="none" xmlns="http://www.w3.org/2000/svg"><path d="M17.5 4.375h-1.875V2.5A.625.625 0 0015 1.875H5a.625.625 0 00-.625.625v1.875H2.5A.625.625 0 001.875 5v12.5a.625.625 0 00.625.625h15a.624.624 0 00.625-.625V5a.625.625 0 00-.625-.625zm-8.75 12.5V13.75h2.5v3.125h-2.5zm8.125 0H12.5v-3.75a.624.624 0 00-.625-.625h-3.75a.625.625 0 00-.625.625v3.75H3.125V5.625H5A.625.625 0 005.625 5V3.125h8.75V5a.625.625 0 00.625.625h1.875v11.25z" fill="#C4C4C4"/><path d="M10 3.75a3.75 3.75 0 100 7.5 3.75 3.75 0 000-7.5zM10 10a2.5 2.5 0 110-5 2.5 2.5 0 010 5z" fill="#C4C4C4"/><path d="M10.625 7.241V6.25a.625.625 0 10-1.25 0V7.5c0 .166.066.325.183.442l.625.625a.625.625 0 00.884-.884l-.442-.442zM5.625 10.625H5a.625.625 0 00-.625.625v.625c0 .345.28.625.625.625h.625c.345 0 .625-.28.625-.625v-.625a.625.625 0 00-.625-.625zM15 10.625h-.625a.625.625 0 00-.625.625v.625c0 .345.28.625.625.625H15c.345 0 .625-.28.625-.625v-.625a.625.625 0 00-.625-.625zM5.625 13.75H5a.625.625 0 00-.625.625V15c0 .345.28.625.625.625h.625c.345 0 .625-.28.625-.625v-.625a.625.625 0 00-.625-.625zM15 13.75h-.625a.625.625 0 00-.625.625V15c0 .345.28.625.625.625H15c.345 0 .625-.28.625-.625v-.625A.625.625 0 0015 13.75z" fill="#C4C4C4"/></svg>