<svg width="20" height="20" fill="none" xmlns="http://www.w3.org/2000/svg"><path d="M17.5 5h-3.494l-3.125-3.125a1.25 1.25 0 00-1.762 0L5.994 5H2.5a1.25 1.25 0 00-1.25 1.25v11.875a.625.625 0 00.625.625h16.25a.625.625 0 00.625-.625V6.25A1.25 1.25 0 0017.5 5zm-15 1.25h3.125V17.5H2.5V6.25zM9.375 17.5v-3.125h1.25V17.5h-1.25zm2.5 0v-3.75a.625.625 0 00-.625-.625h-2.5a.625.625 0 00-.625.625v3.75h-1.25V5.881L10 2.756l3.125 3.125V17.5h-1.25zm5.625 0h-3.125V6.25H17.5V17.5z" fill="#C4C4C4"/><path d="M10 6.25A1.875 1.875 0 1010 10a1.875 1.875 0 000-3.75zm0 2.5a.625.625 0 110-1.25.625.625 0 010 1.25zM4.375 10H3.75a.625.625 0 100 1.25h.625a.625.625 0 100-1.25zM4.375 12.5H3.75a.625.625 0 100 1.25h.625a.625.625 0 100-1.25zM4.375 15H3.75a.625.625 0 100 1.25h.625a.625.625 0 100-1.25zM15.625 11.25h.625a.624.624 0 100-1.25h-.625a.624.624 0 100 1.25zM15.625 13.75h.625a.624.624 0 100-1.25h-.625a.624.624 0 100 1.25zM16.25 15h-.625a.624.624 0 100 1.25h.625a.624.624 0 100-1.25zM3.75 8.75h.625a.625.625 0 000-1.25H3.75a.625.625 0 000 1.25zM15.625 8.75h.625a.625.625 0 100-1.25h-.625a.625.625 0 100 1.25z" fill="#C4C4C4"/></svg>