<svg width="18" height="18" fill="none" xmlns="http://www.w3.org/2000/svg"><path d="M9 7.125a1.875 1.875 0 100 3.75 1.875 1.875 0 000-3.75zm0 2.5a.625.625 0 110-1.25.625.625 0 010 1.25zm8.644-.344l-2.5-3.75a.625.625 0 00-.52-.281h-4.118l-.881-.881V4h3.125a.625.625 0 00.625-.625v-2.5A.625.625 0 0012.75.25H9a.625.625 0 00-.625.625v3.494l-.881.881H3.375a.625.625 0 00-.519.281l-2.5 3.75a.625.625 0 000 .625.625.625 0 00.519.344H1.5v6.25a.625.625 0 100 1.25h15a.625.625 0 100-1.25v-6.25h.625a.625.625 0 00.519-.969zM14.287 6.5l1.67 2.5h-2.582v-.625a.625.625 0 00-.181-.444L11.756 6.5h2.531zm-4.662-5h2.5v1.25h-2.5V1.5zm-5.913 5h2.532L4.806 7.931a.625.625 0 00-.181.444V9H2.044l1.668-2.5zm-.962 3.75h1.875v6.25H2.75v-6.25zm5.625 6.25v-1.875h1.25V16.5h-1.25zm2.5 0V14a.625.625 0 00-.625-.625h-2.5a.625.625 0 00-.625.625v2.5h-1.25V8.631L8.194 6.32 9 5.506l3.125 3.125V16.5h-1.25zm4.375 0h-1.875v-6.25h1.875v6.25zm-6.875-4.375a.625.625 0 11-1.25 0 .625.625 0 011.25 0zm2.5 0a.625.625 0 11-1.25 0 .625.625 0 011.25 0z" fill="#C4C4C4"/></svg>